<?xml version="1.0" encoding="UTF-8"?>
<svg version="1.1" xmlns="http://www.w3.org/2000/svg" width="100" height="35">
<path d="M0 0 C0 0.66 0 1.32 0 2 C-0.66 2 -1.32 2 -2 2 C-2.09474609 3.57587891 -2.09474609 3.57587891 -2.19140625 5.18359375 C-2.80400212 12.9286876 -3.43799145 19.2588141 -8.859375 25.23828125 C-11.91193491 27.75051577 -15.13021803 29.40552619 -18.765625 30.9296875 C-21.03883692 32.0186037 -22.26574822 33.21474081 -24 35 C-24.66 35 -25.32 35 -26 35 C-26.11760715 31.83365364 -26.18771024 28.66787926 -26.25 25.5 C-26.30027344 24.1696875 -26.30027344 24.1696875 -26.3515625 22.8125 C-26.44223629 16.64668233 -25.48236443 12.15230223 -22 7 C-15.86784101 0.69750326 -8.45116519 -0.52819782 0 0 Z M-14 4 C-13 6 -13 6 -13 6 Z M-17 8 C-16 10 -16 10 -16 10 Z M-20 13 C-20 14.98 -20 16.96 -20 19 C-19.67 19 -19.34 19 -19 19 C-19 17.02 -19 15.04 -19 13 C-19.33 13 -19.66 13 -20 13 Z M-16 13 C-16 14.98 -16 16.96 -16 19 C-15.67 19 -15.34 19 -15 19 C-15 17.02 -15 15.04 -15 13 C-15.33 13 -15.66 13 -16 13 Z M-13 17 C-12 19 -12 19 -12 19 Z " fill="#FFFFFF" transform="translate(27,0)"/>
<path d="M0 0 C3 1 3 1 4 3 C4.33 2.01 4.66 1.02 5 0 C17.66666667 0 30.33333333 0 43 0 C43 2.64 43 5.28 43 8 C40.0719073 8.8356429 37.41823857 9.16205486 34.375 9.1875 C33.21097656 9.20876953 33.21097656 9.20876953 32.0234375 9.23046875 C30 9 30 9 28 7 C27.01 7.66 26.02 8.32 25 9 C22 9.125 22 9.125 19 9 C18.01 9 17.02 9 16 9 C15.2575 8.814375 14.515 8.62875 13.75 8.4375 C10.32709093 7.89294628 7.41614542 8.50310612 4 9 C1.75 8.5625 1.75 8.5625 0 8 C-0.99 8 -1.98 8 -3 8 C-2.01 5.36 -1.02 2.72 0 0 Z M17 2 C18 4 18 4 18 4 Z M37 3 C37.66 3.66 38.32 4.32 39 5 C39 4.34 39 3.68 39 3 C38.34 3 37.68 3 37 3 Z " fill="#FFFFFF" transform="translate(56,12)"/>
<path d="M0 0 C19.25 0 19.25 0 24 1 C24 1.66 24 2.32 24 3 C22.68 3 21.36 3 20 3 C20 3.99 20 4.98 20 6 C21.32 5.67 22.64 5.34 24 5 C24 5.99 24 6.98 24 8 C20.98968256 8.93423645 20.13349732 9.04449911 17 8 C14.85744207 8.38932856 14.85744207 8.38932856 13 9 C12 6 12 6 13 3 C12.01 3 11.02 3 10 3 C10 4.65 10 6.3 10 8 C9.01 8 8.02 8 7 8 C7 6.35 7 4.7 7 3 C6.01 3 5.02 3 4 3 C4.66 4.65 5.32 6.3 6 8 C4.35 8.33 2.7 8.66 1 9 C-0.06546953 5.8035914 -0.07427838 3.34252724 0 0 Z M16 3 C17 6 17 6 17 6 Z " fill="#FFFFFF" transform="translate(27,12)"/>
</svg>
